<svg xmlns="http://www.w3.org/2000/svg" viewBox="0 0 512 512">
  <defs>
    <linearGradient id="gradBot" x1="0" y1="0" x2="1" y2="0">
      <stop offset="0%" stop-color="#9C0A2D"/>
      <stop offset="80%" stop-color="#570014"/>
      <stop offset="100%" stop-color="#6F041A"/>
    </linearGradient>
    <linearGradient id="gradMid" x1="0" y1="0" x2="1" y2="0">
      <stop offset="0%" stop-color="#E12A5C"/>
      <stop offset="80%" stop-color="#9D0525"/>
      <stop offset="100%" stop-color="#B40A2D"/>
    </linearGradient>
    <linearGradient id="gradTop" x1="0" y1="0" x2="1" y2="0">
      <stop offset="0%" stop-color="#FF5C83"/>
      <stop offset="80%" stop-color="#CD1943"/>
      <stop offset="100%" stop-color="#E2204D"/>
    </linearGradient>
    <linearGradient id="gradFace" x1="0" y1="0" x2="1" y2="1">
      <stop offset="0%" stop-color="#FFB3CE"/>
      <stop offset="100%" stop-color="#FF6394"/>
    </linearGradient>
    <linearGradient id="gradCard" x1="0" y1="0" x2="1" y2="1">
      <stop offset="0%" stop-color="#F94670"/>
      <stop offset="100%" stop-color="#960E2A"/>
    </linearGradient>
    <filter id="shadow" x="-20%" y="-20%" width="140%" height="140%">
      <feDropShadow dx="15" dy="15" stdDeviation="12" flood-color="#000" flood-opacity="0.4"/>
    </filter>
  </defs>

  <path d="M 140 320 L 140 420 A 160 65 0 0 0 460 420 L 460 320 A 160 65 0 0 1 140 320 Z" fill="url(#gradBot)" />
  <path d="M 140 220 L 140 321 A 160 65 0 0 0 460 321 L 460 220 A 160 65 0 0 1 140 220 Z" fill="url(#gradMid)" />
  <path d="M 140 120 L 140 221 A 160 65 0 0 0 460 221 L 460 120 A 160 65 0 0 1 140 120 Z" fill="url(#gradTop)" />
  <ellipse cx="300" cy="120" rx="160" ry="65" fill="url(#gradFace)" />

  <rect x="40" y="230" width="220" height="220" rx="45" ry="45" fill="url(#gradCard)" filter="url(#shadow)" />
  
  <text x="150" y="395" font-family="'Segoe UI Black', 'Arial Black', sans-serif" font-size="160" font-weight="900" fill="#FFF" text-anchor="middle">A</text>
</svg>
